HIERARCHY
ROOT SpineBase
{
  OFFSET 0.000000 0.000000 0.000000
  CHANNELS 6 Xposition Yposition Zposition Zrotation Xrotation Yrotation
  JOINT SpineMid
  {
    OFFSET -0.000000 39.052523 0.000000
    CHANNELS 3 Zrotation Xrotation Yrotation
    JOINT SpineShoulder
    {
      OFFSET 0.234334 28.927448 -0.855016
      CHANNELS 3 Zrotation Xrotation Yrotation
      JOINT Neck
      {
        OFFSET 0.168481 9.538795 -0.588184
        CHANNELS 3 Zrotation Xrotation Yrotation
        JOINT Head
        {
          OFFSET 5.352835 12.395489 2.060380
          CHANNELS 3 Zrotation Xrotation Yrotation
          End Site
          {
            OFFSET 0 0 0
          }
        }
      }
      JOINT ShoulderLeft
      {
        OFFSET -6.691637 -2.816097 -12.031094
        CHANNELS 3 Zrotation Xrotation Yrotation
        JOINT ElbowLeft
        {
          OFFSET -1.833266 -23.677907 -6.543484
          CHANNELS 3 Zrotation Xrotation Yrotation
          JOINT WristLeft
          {
            OFFSET 4.996055 -24.609386 -2.084064
            CHANNELS 3 Zrotation Xrotation Yrotation
            JOINT HandLeft
            {
              OFFSET 2.411126 -8.556159 2.912865
              CHANNELS 3 Zrotation Xrotation Yrotation
              JOINT HandTipLeft
              {
                OFFSET 4.006471 -7.568836 -3.250654
                CHANNELS 3 Zrotation Xrotation Yrotation
                End Site
                {
                  OFFSET 0 0 0
                }
              }
              JOINT ThumbLeft
              {
                OFFSET -2.764503 -2.203022 -0.354471
                CHANNELS 3 Zrotation Xrotation Yrotation
                End Site
                {
                  OFFSET 0 0 0
                }
              }
            }
          }
        }
      }
      JOINT ShoulderRight
      {
        OFFSET 5.273517 -8.134371 17.807893
        CHANNELS 3 Zrotation Xrotation Yrotation
        JOINT ElbowRight
        {
          OFFSET 4.249419 -24.138682 6.765631
          CHANNELS 3 Zrotation Xrotation Yrotation
          JOINT WristRight
          {
            OFFSET 2.699278 -21.207128 -12.985717
            CHANNELS 3 Zrotation Xrotation Yrotation
            JOINT HandRight
            {
              OFFSET -0.043327 -3.251428 0.011030
              CHANNELS 3 Zrotation Xrotation Yrotation
              JOINT HandTipRight
              {
                OFFSET 0.299411 -4.080974 -0.540602
                CHANNELS 3 Zrotation Xrotation Yrotation
                End Site
                {
                  OFFSET 0 0 0
                }
              }
              JOINT ThumbRight
              {
                OFFSET 2.038849 -1.213614 0.026013
                CHANNELS 3 Zrotation Xrotation Yrotation
                End Site
                {
                  OFFSET 0 0 0
                }
              }
            }
          }
        }
      }
    }
  }
  JOINT HipLeft
  {
    OFFSET -2.554022 1.139650 -9.500532
    CHANNELS 3 Zrotation Xrotation Yrotation
    JOINT KneeLeft
    {
      OFFSET -2.241997 -33.607196 2.349702
      CHANNELS 3 Zrotation Xrotation Yrotation
      JOINT AnkleLeft
      {
        OFFSET -6.690845 -32.239529 2.285826
        CHANNELS 3 Zrotation Xrotation Yrotation
        JOINT FootLeft
        {
          OFFSET 4.100931 -6.969813 2.239708
          CHANNELS 3 Zrotation Xrotation Yrotation
          End Site
          {
            OFFSET 0 0 0
          }
        }
      }
    }
  }
  JOINT HipRight
  {
    OFFSET 3.608408 0.426264 2.517942
    CHANNELS 3 Zrotation Xrotation Yrotation
    JOINT KneeRight
    {
      OFFSET 0.723760 -32.884866 12.887190
      CHANNELS 3 Zrotation Xrotation Yrotation
      JOINT AnkleRight
      {
        OFFSET -23.022550 -32.082837 -12.107975
        CHANNELS 3 Zrotation Xrotation Yrotation
        JOINT FootRight
        {
          OFFSET 10.322439 -5.990450 4.229002
          CHANNELS 3 Zrotation Xrotation Yrotation
          End Site
          {
            OFFSET 0 0 0
          }
        }
      }
    }
  }
}
MOTION
Frames: 6
Frame Time: 0.033333
-52.520380 74.837864 349.679325 0.000000 0.000000 -62.853681 -0.000000 0.000000 62.853681 -0.000000 0.000000 0.000000 -0.000000 0.000000 0.000000 0.000000 0.000000 0.000000 -0.000000 0.000000 0.000000 -0.000000 0.000000 0.000000 -0.000000 0.000000 0.000000 -0.000000 0.000000 0.000000 0.000000 0.000000 0.000000 0.000000 0.000000 0.000000 -0.000000 0.000000 0.000000 -0.000000 0.000000 0.000000 -0.000000 0.000000 0.000000 -0.000000 0.000000 0.000000 0.000000 0.000000 0.000000 0.000000 0.000000 0.000000 -0.000000 0.000000 62.853681 -0.000000 0.000000 0.000000 -0.000000 0.000000 0.000000 0.000000 0.000000 0.000000 -0.000000 0.000000 62.853681 -0.000000 0.000000 0.000000 -0.000000 0.000000 0.000000 0.000000 0.000000 0.000000
-51.942603 74.789309 350.018698 0.300934 -0.312865 -62.486252 -0.416499 -0.122369 62.486629 -0.000000 0.000000 0.000000 -0.000000 0.000000 0.000000 0.000000 0.000000 0.000000 -0.000000 0.000000 0.000000 -0.000000 0.000000 0.000000 -0.000000 0.000000 0.000000 -0.000000 0.000000 0.000000 0.000000 0.000000 0.000000 0.000000 0.000000 0.000000 -0.000000 0.000000 0.000000 -0.000000 0.000000 0.000000 -1.591604 -1.896713 -0.006469 0.930928 0.419953 -0.053791 0.000000 0.000000 0.000000 0.000000 0.000000 0.000000 -1.345840 -0.563194 62.382326 0.821399 -0.619109 0.103181 -0.000000 0.000000 0.000000 0.000000 0.000000 0.000000 -1.320643 -0.672405 62.136840 0.908809 -0.542273 0.347818 0.630283 -0.530396 -0.460215 0.000000 0.000000 0.000000
-51.430259 74.749470 350.331981 0.550236 -0.597348 -62.173524 -0.785113 -0.207781 62.174968 -0.000000 0.000000 0.000000 -0.000000 0.000000 0.000000 0.000000 0.000000 0.000000 -0.000000 0.000000 0.000000 -0.000000 0.000000 0.000000 -0.000000 0.000000 0.000000 -0.000000 0.000000 0.000000 0.000000 0.000000 0.000000 0.000000 0.000000 0.000000 -0.000000 0.000000 0.000000 0.607388 1.121375 -0.233576 -3.391194 -4.153934 0.124066 1.514621 0.416553 -0.087771 0.000000 0.000000 0.000000 0.000000 0.000000 0.000000 -2.546193 -1.013074 61.970141 1.538348 -1.176142 0.201854 0.731101 0.154953 0.324045 0.000000 0.000000 0.000000 -2.505257 -1.189273 61.519974 1.682849 -1.044050 0.649356 1.121401 -0.894670 -0.725006 0.000000 0.000000 0.000000
-50.983350 74.718347 350.619172 0.748030 -0.853562 -61.916652 -0.226898 0.201880 61.948904 0.093080 0.089273 0.034634 -0.911835 0.470043 -0.060796 0.000000 0.000000 0.000000 -0.911835 0.470043 -0.060796 -0.000000 0.000000 0.000000 -0.645165 -0.562339 -0.381244 0.641441 0.566584 0.374906 0.000000 0.000000 0.000000 0.000000 0.000000 0.000000 -0.911835 0.470043 -0.060796 0.785125 1.457373 -0.302619 -4.501040 -5.030827 0.106454 1.857708 0.129700 -0.093862 0.000000 0.000000 0.000000 0.000000 0.000000 0.000000 -3.595492 -1.354950 61.622963 2.148408 -1.669968 0.293024 0.919017 0.210241 0.415626 0.000000 0.000000 0.000000 -3.554939 -1.562113 61.006858 2.327665 -1.510967 0.904653 1.475498 -1.088673 -0.797238 0.000000 0.000000 0.000000
-50.601875 74.695940 350.880272 0.894410 -1.081615 -61.716331 -0.280739 0.259285 61.756634 0.093413 0.109531 0.040776 -1.082249 0.603397 -0.071706 0.000000 0.000000 0.000000 -1.082249 0.603397 -0.071706 -0.000000 0.000000 0.000000 -0.700178 -0.627115 -0.418866 0.695617 0.632170 0.411196 0.000000 0.000000 0.000000 0.000000 0.000000 0.000000 -1.082249 0.603397 -0.071706 0.873377 1.635648 -0.335807 -5.331382 -5.254291 0.074858 2.023114 -0.372528 -0.071309 0.000000 0.000000 0.000000 0.000000 0.000000 0.000000 -4.489358 -1.593716 61.345197 2.649687 -2.099831 0.374054 0.989527 0.250127 0.460976 0.000000 0.000000 0.000000 -4.470930 -1.800120 60.600276 2.127934 -1.415670 0.968848 2.406235 -1.650686 -0.536090 0.000000 0.000000 0.000000
-50.285833 74.682250 351.115281 0.989436 -1.281607 -61.572825 -0.324237 0.311222 61.619335 0.078436 0.124992 0.044444 -1.186047 0.725033 -0.078455 0.000000 0.000000 0.000000 -1.186047 0.725033 -0.078455 -0.000000 0.000000 0.000000 -0.674344 -0.630539 -0.410885 0.669846 0.635315 0.403461 0.000000 0.000000 0.000000 0.000000 0.000000 0.000000 -1.186047 0.725033 -0.078455 0.869943 1.652897 -0.331602 -5.926981 -4.861181 0.043529 2.047619 -1.066776 -0.022176 0.000000 0.000000 0.000000 0.000000 0.000000 0.000000 -5.224564 -1.733629 61.139887 3.040791 -2.465271 0.442699 0.942947 0.274461 0.460370 0.000000 0.000000 0.000000 -5.254567 -1.910154 60.302242 2.470087 -1.868856 1.171319 2.540046 -1.462448 -0.277437 0.000000 0.000000 0.000000
